<svg width="200" height="31" viewBox="0 0 200 31" fill="none" xmlns="http://www.w3.org/2000/svg">
<g clip-path="url(#clip0_9_52)">
<path d="M30.2808 15.6447C30.2808 23.9574 23.5682 30.6965 15.2874 30.6965C7.0067 30.6965 0.294556 23.9594 0.294556 15.6447C0.294556 7.33 7.00721 0.593447 15.2874 0.593447C23.5676 0.593447 30.2808 7.33203 30.2808 15.6447ZM46.7287 15.6447C46.7287 23.4701 43.3721 29.8132 39.232 29.8132C35.0919 29.8132 31.7353 23.4681 31.7353 15.6447C31.7353 7.82137 35.0919 1.47619 39.232 1.47619C43.3721 1.47619 46.7287 7.82137 46.7287 15.6447ZM53.4561 15.6447C53.4561 22.6559 52.2755 28.3391 50.8195 28.3391C49.3634 28.3391 48.1828 22.6539 48.1828 15.6447C48.1828 8.63558 49.3634 2.9503 50.82 2.9503C52.2765 2.9503 53.4561 8.63406 53.4561 15.6447ZM94.8353 1.89852L94.8771 1.88939V1.56705H86.3505L78.4332 20.1204L70.516 1.56705H61.3275V1.88939L61.3688 1.89852C62.9251 2.24878 63.7153 2.77111 63.7153 4.65487V26.7082C63.7153 28.5919 62.9221 29.1143 61.3657 29.4645L61.3245 29.4737V29.797H67.5586V29.4747L67.5173 29.4655C65.961 29.1153 65.1708 28.5929 65.1708 26.7092V5.93406L75.3414 29.797H75.9182L86.3851 5.26857V27.2539C86.2517 28.7417 85.4687 29.2011 84.0594 29.5183L84.0177 29.528V29.8478H94.8771V29.528L94.8353 29.5183C93.4246 29.2011 92.6227 28.7417 92.4893 27.2539L92.4822 4.65487H92.4893C92.4893 2.77111 93.2795 2.24878 94.8353 1.89852ZM99.7956 16.5077C99.9733 12.5452 101.4 9.68533 103.795 9.63609C104.534 9.64827 105.154 9.8899 105.635 10.3549C106.658 11.3452 107.14 13.4148 107.065 16.5077H99.7956ZM99.6882 17.6244H112.416V17.5711C112.38 14.5412 111.5 12.1843 109.802 10.566C108.335 9.16756 106.163 8.39802 103.881 8.39802H103.83C102.646 8.39802 101.193 8.68431 100.16 9.20309C98.9831 9.74624 97.9455 10.5584 97.0821 11.6244C95.6922 13.3417 94.8501 15.6625 94.6454 18.2706C94.6388 18.3488 94.6332 18.427 94.6276 18.5051C94.622 18.5833 94.6185 18.6533 94.6149 18.728C94.5968 19.0947 94.5907 19.4619 94.5966 19.829C94.7345 25.7361 97.9348 30.4569 103.619 30.4569C108.608 30.4569 111.514 26.8204 112.238 21.9391L111.872 21.8107C110.6 24.4341 108.314 26.0239 105.712 25.83C102.16 25.565 99.4398 21.9747 99.6867 17.6254L99.6882 17.6244ZM126.807 25.6295C126.389 26.6168 125.518 27.1599 124.351 27.1599C123.183 27.1599 122.116 26.361 121.358 24.9092C120.544 23.3508 120.115 21.1478 120.115 18.5381C120.115 13.1066 121.809 9.59345 124.432 9.59345C125.53 9.59345 126.394 10.1366 126.807 11.0843V25.6295ZM135.25 29.5016C133.693 29.1346 132.903 28.5879 132.903 26.6082V0.268066L123.447 3.04573V3.38583L123.506 3.38126C124.81 3.27619 125.695 3.45588 126.208 3.92898C126.611 4.29954 126.807 4.86807 126.807 5.66807V9.27923C125.874 8.68583 124.766 8.397 123.42 8.397C120.691 8.397 118.197 9.54269 116.398 11.6234C114.523 13.7919 113.532 16.7554 113.532 20.1924C113.532 26.331 116.562 30.4569 121.073 30.4569C123.712 30.4569 125.835 29.0153 126.807 26.5838V29.8478H135.291V29.5097L135.25 29.5016ZM143.359 3.8503C143.359 1.93355 141.91 0.487863 139.987 0.487863C138.073 0.487863 136.576 1.96502 136.576 3.8503C136.576 5.73558 138.075 7.21274 139.987 7.21274C141.91 7.21274 143.359 5.76705 143.359 3.8503ZM145.591 29.5016C144.035 29.1346 143.245 28.5879 143.245 26.6082H143.238V8.45944L134.753 10.8884V11.2183L134.804 11.2229C136.64 11.3858 137.143 12.0163 137.143 14.1554V29.8478H145.635V29.5097L145.591 29.5016ZM167.333 29.5016C165.777 29.1346 164.987 28.5879 164.987 26.6082V8.45944L156.908 10.8082V11.1391L156.956 11.1442C158.457 11.3016 158.89 11.9681 158.89 14.1168V25.5889C158.39 26.5762 157.451 27.1625 156.314 27.2021C154.469 27.2021 153.454 25.9599 153.454 23.7046V8.45995L144.969 10.8889V11.2183L145.02 11.2229C146.855 11.3853 147.359 12.0158 147.359 14.1554V23.8645C147.354 24.5423 147.413 25.219 147.535 25.8858L147.688 26.5483C148.406 29.1148 150.288 30.4569 153.237 30.4569C155.735 30.4569 157.924 28.9153 158.888 26.5031V29.8533H167.373V29.5153L167.333 29.5016ZM200.295 29.8478V29.5092L200.253 29.4995C198.565 29.1112 197.907 28.3792 197.907 26.8889V14.5437C197.907 10.6945 195.739 8.397 192.107 8.397C189.459 8.397 187.227 9.92238 186.367 12.2985C185.685 9.78076 183.72 8.397 180.815 8.397C178.263 8.397 176.263 9.73964 175.406 12.0077V8.46096L166.921 10.7904V11.1224L166.972 11.127C168.786 11.2874 169.31 11.9361 169.31 14.0204V29.8478H177.227V29.5097L177.185 29.4995C175.838 29.1838 175.403 28.6082 175.403 27.131V12.9808C175.759 12.1508 176.478 11.1676 177.898 11.1676C179.661 11.1676 180.555 12.3858 180.555 14.7858V29.8478H188.474V29.5097L188.432 29.4995C187.085 29.1838 186.65 28.6082 186.65 27.131V14.5422C186.654 14.0715 186.616 13.6014 186.538 13.1371C186.916 12.2351 187.676 11.1676 189.154 11.1676C190.942 11.1676 191.811 12.3508 191.811 14.7858V29.8478H200.295Z" fill="black"/>
</g>
<defs>
<clipPath id="clip0_9_52">
<rect width="200" height="30.9645" fill="white"/>
</clipPath>
</defs>
</svg>
